<svg width="1750" height="304" viewBox="0 0 1750 304" fill="none" xmlns="http://www.w3.org/2000/svg">
<path d="M303 270.612C318 268.112 330.5 274.224 339 273.612C347.5 273 361 265.112 369 264.112C373.181 263.589 390.794 267.296 410 265.612C410 265.612 434 259.112 446.5 258.112C459 257.112 487 268.612 498 268.612C509 268.612 535 249.612 549 250.612C563 251.612 610.709 269.757 618.5 268.112C626.291 266.467 652 284.112 673 284.112C694 284.112 717.5 271.112 730.5 268.112C743.5 265.112 802.5 276.112 822 276.112C841.5 276.112 858 268.612 863 268.112C868 267.612 877 269.612 883.5 268.112C890 266.612 900 261.612 912 262.112C924 262.612 962.5 280.112 978 278.112C993.5 276.112 1001 274.112 1003.5 273.112C1004.56 272.688 1010.64 272.355 1017.38 272.224C1010.1 262.32 1004.5 237.112 1004.5 237.112C1004.5 237.112 996.5 194.112 1013 190.112C1029.5 186.112 1038.5 201.612 1041.5 205.612C1042.29 206.663 1043.7 211.406 1045.29 217.92C1055.69 210.793 1078.04 209.612 1081.5 209.612C1082.81 209.612 1098.56 208.739 1112.08 208.378C1102.44 208.441 1086.05 208.039 1085 204.612C1083.5 199.739 1104.5 146.112 1118.5 143.612C1129.05 141.727 1159.9 171.179 1173.75 185.112C1173.84 183.422 1173.08 180.145 1173.5 177.112C1174.17 172.296 1176.88 165.833 1180.68 158.921C1174.05 161.674 1167.66 162.664 1161.5 160.611C1152.5 157.611 1146.5 133.612 1146.5 122.612C1146.5 111.612 1150 78.2903 1158 81.5537L1162.82 83C1159.42 80.2356 1157.96 77.1508 1161.5 73.6113C1172 63.1107 1174 66.6119 1176.5 68.1113C1178.47 69.2931 1178.27 73.8926 1180.05 76.2776C1179.21 66.8133 1178.51 57.6113 1179 57.6113L1179.5 56.1113C1180.33 55.5585 1183.3 56.3808 1186.38 57.0579C1189.14 57.9812 1191.9 58.6113 1193.5 58.6113C1195.26 58.6113 1198.29 58.3577 1201.31 57.5313C1201.38 57.5578 1201.44 57.5845 1201.5 57.6113C1203.52 58.4789 1196.68 70.2174 1190.56 79.9622C1193.75 82.3507 1191.42 88.187 1190 89.6113C1188.5 91.1113 1180.84 93.7495 1180.84 93.7495C1180.84 93.7495 1181.96 95.335 1182 96.5C1182.03 97.5169 1181.27 99 1181.27 99C1180.54 102.204 1180.4 106.386 1180.17 110.648C1190.28 107.487 1201.27 111.112 1205 111.112C1206.23 111.112 1206.46 112.117 1206.07 113.632C1211.08 111.905 1216.85 111.228 1219.5 112.111C1220.82 112.55 1221.36 114.142 1221.55 116.239C1227 116.277 1228 117 1228 117L1240 117.5L1230 113.612C1222.5 110.612 1215 95.1126 1216 79.6119C1217 64.1113 1220 53.1126 1220.5 49.6119C1221 46.1113 1226.5 29.1119 1232 21.1113C1237.5 13.1107 1257.5 -0.888557 1281.5 0.611443C1305.5 2.11144 1324 13.6115 1324 13.6115C1358.5 34.1115 1351.5 84.1119 1351.5 84.1119C1348.95 100.164 1343.2 109.295 1339.5 114.419L1338.49 122.5C1338.49 122.5 1352 104.111 1360 102.611C1368 101.111 1390.5 110.612 1394 118.612C1397.5 126.612 1373.5 194.612 1371 200.612C1371 200.612 1369.3 207.165 1364.78 216.5C1353.27 240.285 1328.97 282.125 1308.5 279.612C1308.5 279.612 1325.5 285.611 1340.5 281.111C1355.5 276.611 1359 266.112 1359 266.112C1359 266.112 1373 243.611 1374.5 234.112C1376 224.612 1374.5 219.611 1374.5 213.612C1374.5 207.612 1383.59 182.611 1382.5 174.611C1381.41 166.611 1394.5 152.112 1399.5 149.611C1404.5 147.111 1427 146.611 1427 146.611C1427 146.611 1450.31 140.694 1455.5 140C1460.69 139.306 1480.49 147.106 1495.5 154.112C1514.81 163.126 1536.82 191.483 1549.5 202.612C1561.35 213.01 1557.02 219.455 1570.5 234.112C1581.14 245.683 1587.56 247.591 1594 258.5C1598.69 266.45 1609.46 270.587 1619.5 276.112C1640.89 287.884 1657.15 282.384 1681.5 284.112C1693.74 284.98 1707.82 292.84 1717.5 293C1730.28 293.211 1742.57 302.145 1748.07 303H1749.5C1749.09 303.09 1748.62 303.085 1748.07 303H0C12 303 20.5 295 28 297C35.5 299 58.5 285.5 79.5 281.5C100.5 277.5 153.5 286.5 183 286.5C212.5 286.5 288 273.112 303 270.612Z" fill="#F0F1F2"/>
<path d="M1196.8 53.4918C1197.8 55.7007 1198.99 56.5208 1201.31 57.5313C1204.29 56.7166 1207.26 55.3452 1209 53.1113C1212.5 48.6113 1213.5 41.1113 1208 39.1113C1207.1 38.7847 1206.12 38.6982 1205.12 38.8059C1203.54 41.5391 1200.22 41.9218 1197.9 42.706C1196.58 44.1284 1195.64 45.7913 1195.39 47.4413C1195.79 49.3723 1197 50.8706 1197 52.6113C1197 52.6113 1196.96 52.9666 1196.8 53.4918Z" fill="#DBA5EE"/>
<path d="M1192.5 23.1113C1179.5 24.6113 1182 35.1113 1182 36.1113C1182 36.7389 1183.18 38.7447 1184.93 40.399C1190.61 40.1287 1197.49 42.6485 1197.14 43C1197.38 42.8937 1197.63 42.7971 1197.9 42.706C1199.82 40.641 1202.55 39.0827 1205.12 38.8059C1205.6 37.9806 1205.92 36.941 1206 35.6113C1206.5 27.6113 1205.5 21.6113 1192.5 23.1113Z" fill="#FFC785"/>
<path d="M1205.12 38.8059C1203.54 41.5391 1200.22 41.9218 1197.9 42.706C1199.82 40.641 1202.55 39.0827 1205.12 38.8059Z" fill="#DBA5EE"/>
<path d="M1178.5 53.1113C1179.85 54.4656 1183.12 55.9666 1186.38 57.0579C1188.87 57.6057 1191.43 58.0585 1193 57.6113C1195.46 56.9093 1196.44 54.7289 1196.8 53.4918C1196.36 52.5153 1195.95 51.2675 1195.5 49.6119C1195.31 48.9058 1195.28 48.1748 1195.39 47.4413C1195.22 46.599 1195.2 45.6743 1195.5 44.6113C1195.69 43.9451 1196.17 43.4963 1196.83 43.1511C1195.62 43.511 1191.61 43.5004 1188.5 42.6113C1187.2 42.2389 1185.96 41.3809 1184.93 40.399C1182.52 40.5132 1180.34 41.1259 1179 42.6113C1174.5 47.6113 1176 50.6113 1178.5 53.1113Z" fill="#ACE6B5"/>
<path d="M1197.14 43C1197.49 42.6485 1190.61 40.1287 1184.93 40.399C1185.96 41.3809 1187.2 42.2389 1188.5 42.6113C1191.61 43.5004 1195.62 43.511 1196.83 43.1511C1196.93 43.0985 1197.03 43.0482 1197.14 43Z" fill="#ACE6B5"/>
<path d="M1182 96.6113C1179.5 102.611 1181 115.112 1178.5 123.111C1176 131.111 1164 154.611 1161.5 151.611C1159 148.611 1159 128.613 1170.5 116.612C1182 104.611 1200 111.112 1205 111.112C1210 111.112 1198.5 127.611 1196 127.611C1193.5 127.612 1194.5 123.612 1198 118.612C1201.5 113.612 1215 110.611 1219.5 112.111C1224 113.612 1219.5 128.611 1222.5 131.111C1225.5 133.611 1238.5 143.112 1248 145.612C1257.5 148.111 1267 150.612 1272 151.112C1277 151.611 1304.5 153.111 1311 151.611C1317.5 150.111 1321 143.611 1321 143.611C1321 143.611 1352 104.111 1360 102.611C1368 101.111 1390.5 110.612 1394 118.612C1397.5 126.612 1373.5 194.612 1371 200.612C1371 200.612 1337 283.111 1308.5 279.612C1280 276.113 1274.5 267.613 1276 266.112C1277.5 264.611 1288.5 271.612 1296.5 272.112C1304.5 272.612 1306 266.112 1306 266.112C1306 266.112 1311.5 220.112 1319 220.612C1326.5 221.111 1334.89 234.612 1346 232.112C1357.11 229.611 1360.5 222.112 1365 217.112C1369.5 212.111 1368 196.612 1357.5 195.612C1347 194.612 1319.5 186.111 1318 181.112C1316.5 176.112 1322.5 148.112 1332 151.112C1341.5 154.112 1371 169.112 1374.5 169.112C1378 169.112 1377 165.111 1374.5 164.612C1372 164.112 1354 158.611 1353 154.112C1352 149.612 1357.5 138.612 1357.5 138.612C1357.5 138.612 1372.5 120.611 1367 113.111C1361.5 105.611 1349.5 116.612 1349.5 116.612C1349.5 116.612 1340.5 137.111 1331.5 141.112C1322.5 145.112 1305 142.612 1292 142.612C1279 142.612 1227 118.612 1227 118.612C1227 118.612 1227 115.112 1217 116.612C1207 118.112 1176 159.111 1173.5 177.112C1171 195.112 1205 215.112 1205 215.112C1205 215.112 1250 236.112 1257.5 239.112C1265 242.111 1266 248.612 1266 251.112C1266 253.611 1251.5 266.113 1259 272.612C1266.5 279.111 1296.5 282.112 1296.5 282.112C1296.5 282.112 1325.5 285.611 1340.5 281.111C1355.5 276.611 1359 266.112 1359 266.112C1359 266.112 1373 243.611 1374.5 234.112C1376 224.612 1374.5 219.611 1374.5 213.612C1374.5 207.612 1383.59 182.611 1382.5 174.611C1381.41 166.611 1394.5 152.112 1399.5 149.611C1404.5 147.111 1427 146.611 1427 146.611C1427 146.611 1450.31 140.694 1455.5 140C1460.69 139.306 1480.49 147.106 1495.5 154.112C1514.81 163.126 1536.82 191.483 1549.5 202.612C1561.35 213.01 1557.02 219.455 1570.5 234.112C1581.14 245.683 1587.56 247.591 1594 258.5C1598.69 266.45 1609.46 270.587 1619.5 276.112C1640.89 287.884 1657.15 282.384 1681.5 284.112C1693.74 284.98 1707.82 292.84 1717.5 293C1727.51 293.165 1735.06 298.815 1745 301.591M1182 96.6113C1182.39 95.674 1181.9 94.7245 1180.84 93.7495M1182 96.6113C1182 96.6113 1178 57.6113 1179 57.6113C1180 57.6113 1191 60.1113 1191.5 60.6113C1192 61.1113 1182 80.1113 1182.5 81.1113C1183 82.1113 1187 74.6113 1187.5 72.6113C1188 70.6113 1183 72.6113 1183 71.1113C1183 69.6113 1189.5 70.1113 1190 69.6113C1190.5 69.1113 1184.5 68.1113 1184.5 66.6113C1184.5 65.1113 1192 65.6113 1192.5 65.1113C1193 64.6113 1178 57.1113 1179.5 56.1113C1180.33 55.5585 1183.3 56.3808 1186.38 57.0579M1180.84 93.7495C1181.37 93.7192 1181.77 93.519 1182 93.1113C1182 93.1113 1205 59.1113 1201.5 57.6113C1201.44 57.5845 1201.38 57.5578 1201.31 57.5313M1180.84 93.7495C1176.82 93.9793 1165.07 84.4369 1158 81.5537C1150 78.2903 1146.5 111.612 1146.5 122.612C1146.5 133.612 1152.5 157.611 1161.5 160.611C1170.5 163.611 1180 160.112 1190 154.112C1200 148.111 1208.5 118.113 1224 116.612C1239.5 115.111 1283 131.111 1295.5 110.611C1308 90.1113 1316.77 61.6119 1308 36.6119C1299.23 11.6119 1237 25.6113 1241 19.1113C1245 12.6113 1284 4.61254 1300.5 21.6119C1317 38.6113 1318 47.6119 1318 60.1119C1318 72.612 1300.5 122.612 1288 130.112C1275.5 137.612 1237.5 116.612 1230 113.612C1222.5 110.612 1215 95.1126 1216 79.6119C1217 64.1113 1220 53.1126 1220.5 49.6119C1221 46.1113 1226.5 29.1119 1232 21.1113C1237.5 13.1107 1257.5 -0.888557 1281.5 0.611443C1305.5 2.11144 1324 13.6115 1324 13.6115C1358.5 34.1115 1351.5 84.1119 1351.5 84.1119C1348 106.112 1338.5 115.112 1336.5 118.612C1334.5 122.112 1327.5 129.112 1323 130.612C1318.5 132.112 1304.5 125.612 1302.5 122.612C1300.5 119.612 1300 115.112 1302.5 105.612C1305 96.1119 1311 85.1119 1318 84.1119C1325 83.1119 1327 84.1119 1334 85.6119C1341 87.1119 1340.63 109.112 1339.5 115.112C1338.37 121.112 1336.5 142.612 1336.5 142.612C1336.5 142.612 1338.5 171.612 1336.5 179.112C1334.5 186.612 1326 200.612 1319.5 209.112C1313 217.612 1301 224.112 1298 225.112C1295 226.112 1284.5 228.612 1272 227.612C1259.5 226.612 1270.5 212.112 1270 202.612C1269.5 193.112 1252 179.112 1252 179.112C1252 179.112 1240.5 173.112 1236.5 179.112C1232.5 185.112 1235 190.112 1235 192.612C1235 195.112 1242.5 201.112 1243.5 197.612C1244.5 194.112 1242 192.612 1239 191.112C1236 189.612 1220 185.612 1217 191.112C1214 196.612 1222.5 206.112 1225.5 209.612C1228.5 213.112 1244.33 220.112 1253 224.112C1253 224.112 1261.5 226.612 1263.5 222.112C1265.5 217.612 1264 204.612 1268.5 198.612C1273 192.612 1283.5 185.612 1286.5 183.612C1289.5 181.612 1297 178.612 1302.5 181.112C1308 183.612 1314.5 194.112 1312 196.612C1309.5 199.112 1298 189.612 1294.5 187.112C1291 184.612 1278 169.112 1279 156.612C1280 144.112 1292.5 128.612 1298 127.612C1303.5 126.612 1314 129.612 1323 134.112C1332 138.612 1331 161.112 1330 169.112C1329 177.112 1320.5 199.112 1318 202.612C1315.5 206.112 1309.5 209.612 1292 215.112C1274.5 220.612 1276 242.612 1268.5 248.112C1261 253.612 1243.5 239.112 1239 239.112C1234.5 239.112 1229 240.112 1232 248.112C1235 256.112 1253.07 263.612 1257.5 263.612C1261.93 263.612 1264.5 255.719 1262.5 251.112C1260.5 246.505 1232 246.612 1227 243.612C1222 240.612 1190 220.612 1188.5 217.112C1187 213.612 1188.5 202.612 1185.5 197.612C1182.5 192.612 1179.5 191.112 1179.5 191.112C1179.5 191.112 1132.5 141.112 1118.5 143.612C1104.5 146.112 1083.5 199.739 1085 204.612C1086.5 209.485 1129.5 207.612 1132 204.612C1134.5 201.612 1133.5 189.112 1132.5 184.112C1131.5 179.112 1126.5 173.112 1122.5 174.112C1118.5 175.112 1118 177.112 1118.5 180.612C1119 184.112 1134 200.112 1138 202.612C1142 205.112 1161.5 213.612 1170.5 209.612C1179.5 205.612 1179 195.612 1181.5 196.612C1184 197.612 1181.5 224.112 1173.5 227.612C1165.5 231.112 1114 212.612 1105.5 217.112C1097 221.612 1111.5 250.612 1107 254.612C1102.5 258.612 1075.5 254.612 1071 252.612C1066.5 250.612 1066.5 242.112 1066.5 237.112C1066.5 232.112 1064.5 225.112 1060 225.112C1055.5 225.112 1056 231.612 1056 237.112C1056 242.612 1057.5 262.612 1061 264.612C1064.5 266.612 1086.5 265.612 1100 264.612C1113.5 263.612 1132 277.85 1139.5 276.112C1147 274.374 1146 273.612 1146.5 263.612C1147 253.612 1135 209.143 1121 213.612C1107 218.081 1135 271.112 1151 278.112C1167 285.112 1165 282.612 1184 284.112C1203 285.612 1253 272.112 1252 267.612C1251 263.112 1243 266.112 1218.5 258.612C1194 251.112 1194.5 225.112 1183 215.612C1171.5 206.112 1086 209.612 1081.5 209.612C1077 209.612 1040.5 211.612 1040 226.112C1039.5 240.612 1043.5 258.112 1045 263.112C1046.5 268.112 1050.5 277.112 1053.5 272.112C1056.5 267.112 1044.5 209.612 1041.5 205.612C1038.5 201.612 1029.5 186.112 1013 190.112C996.5 194.112 1004.5 237.112 1004.5 237.112C1004.5 237.112 1013.5 277.612 1023.5 276.112C1033.5 274.612 1038.5 274.612 1037.5 273.112C1036.5 271.612 1006 272.112 1003.5 273.112C1001 274.112 993.5 276.112 978 278.112C962.5 280.112 924 262.612 912 262.112C900 261.612 890 266.612 883.5 268.112C877 269.612 868 267.612 863 268.112C858 268.612 841.5 276.112 822 276.112C802.5 276.112 743.5 265.112 730.5 268.112C717.5 271.112 694 284.112 673 284.112C652 284.112 626.291 266.467 618.5 268.112C610.709 269.757 563 251.612 549 250.612C535 249.612 509 268.612 498 268.612C487 268.612 459 257.112 446.5 258.112C434 259.112 410 265.612 410 265.612C390.794 267.296 373.181 263.589 369 264.112C361 265.112 347.5 273 339 273.612C330.5 274.224 318 268.112 303 270.612C288 273.112 212.5 286.5 183 286.5C153.5 286.5 100.5 277.5 79.5 281.5C58.5 285.5 35.5 299 28 297C28 297 26.1837 296.597 25 296.5C19.7061 296.065 17.1366 299.147 12 300.5C7.73992 301.622 4 302 4 302M1180.84 93.7495C1175.11 88.483 1152.64 82.4716 1161.5 73.6113C1172 63.1107 1174 66.6119 1176.5 68.1113C1179 69.6107 1178 76.6113 1182 77.6113C1186 78.6113 1186 77.5056 1190 79.6119C1194 81.7183 1191.5 88.1113 1190 89.6113C1188.5 91.1113 1180.84 93.7495 1180.84 93.7495ZM1197.14 43C1197.49 42.6485 1190.61 40.1287 1184.93 40.399M1197.14 43C1197.38 42.8937 1197.63 42.7971 1197.9 42.706M1197.14 43C1197.03 43.0482 1196.93 43.0985 1196.83 43.1511M1197.14 43C1197.08 43.0555 1196.98 43.1062 1196.83 43.1511M1196.8 53.4918C1197.8 55.7007 1198.99 56.5208 1201.31 57.5313M1196.8 53.4918C1196.96 52.9666 1197 52.6113 1197 52.6113C1197 50.8706 1195.79 49.3723 1195.39 47.4413M1196.8 53.4918C1196.44 54.7289 1195.46 56.9093 1193 57.6113C1191.43 58.0585 1188.87 57.6057 1186.38 57.0579M1196.8 53.4918C1196.36 52.5153 1195.95 51.2675 1195.5 49.6119C1195.31 48.9058 1195.28 48.1748 1195.39 47.4413M1201.31 57.5313C1204.29 56.7166 1207.26 55.3452 1209 53.1113C1212.5 48.6113 1213.5 41.1113 1208 39.1113C1207.1 38.7847 1206.12 38.6982 1205.12 38.8059M1201.31 57.5313C1198.29 58.3577 1195.26 58.6113 1193.5 58.6113C1191.9 58.6113 1189.14 57.9812 1186.38 57.0579M1205.12 38.8059C1203.54 41.5391 1200.22 41.9218 1197.9 42.706M1205.12 38.8059C1202.55 39.0827 1199.82 40.641 1197.9 42.706M1205.12 38.8059C1205.6 37.9806 1205.92 36.941 1206 35.6113C1206.5 27.6113 1205.5 21.6113 1192.5 23.1113C1179.5 24.6113 1182 35.1113 1182 36.1113C1182 36.7389 1183.18 38.7447 1184.93 40.399M1197.9 42.706C1196.58 44.1284 1195.64 45.7913 1195.39 47.4413M1197.9 42.706C1197.51 42.8385 1197.15 42.9824 1196.83 43.1511M1195.39 47.4413C1195.22 46.599 1195.2 45.6743 1195.5 44.6113C1195.69 43.9451 1196.17 43.4963 1196.83 43.1511M1184.93 40.399C1185.96 41.3809 1187.2 42.2389 1188.5 42.6113C1191.61 43.5004 1195.62 43.511 1196.83 43.1511M1184.93 40.399C1182.52 40.5132 1180.34 41.1259 1179 42.6113C1174.5 47.6113 1176 50.6113 1178.5 53.1113C1179.85 54.4656 1183.12 55.9666 1186.38 57.0579" stroke="#313131"/>
</svg>
