<svg width="675" height="303" viewBox="0 0 675 303" fill="none" xmlns="http://www.w3.org/2000/svg">
<path d="M20.522 296.5C24.022 296.5 43.522 297 47.522 297.5C51.522 298 69.022 293 70.022 292.5C71.022 292 92.522 292.5 97.522 292C102.522 291.5 108.022 288.5 114.522 287C121.022 285.5 138.022 292 150.022 292.5C162.022 293 181.522 280.112 197.022 278.112C212.522 276.112 220.022 274.112 222.522 273.112C223.581 272.688 229.663 272.355 236.399 272.224C229.124 262.32 223.522 237.112 223.522 237.112C223.522 237.112 215.522 194.112 232.022 190.112C248.522 186.112 257.522 201.612 260.522 205.612C261.31 206.663 262.719 211.406 264.315 217.92C274.708 210.793 297.064 209.612 300.522 209.612C301.833 209.612 317.582 208.739 331.099 208.378C321.467 208.441 305.077 208.039 304.022 204.612C302.522 199.739 323.522 146.112 337.522 143.612C348.075 141.727 378.918 171.179 392.77 185.112C392.867 183.422 392.101 180.145 392.522 177.112C393.191 172.296 395.9 165.833 399.701 158.921C393.074 161.674 386.681 162.664 380.522 160.611C371.522 157.611 365.522 133.612 365.522 122.612C365.522 111.612 369.022 78.2903 377.022 81.5537L381.838 83C378.443 80.2356 376.983 77.1508 380.522 73.6113C391.022 63.1107 393.022 66.6119 395.522 68.1113C397.492 69.2931 397.288 73.8926 399.072 76.2776C398.23 66.8133 397.536 57.6113 398.022 57.6113L398.522 56.1113C399.351 55.5585 402.319 56.3808 405.399 57.0579C408.159 57.9812 410.918 58.6113 412.522 58.6113C414.284 58.6113 417.315 58.3577 420.336 57.5313C420.397 57.5578 420.459 57.5845 420.522 57.6113C422.546 58.4789 415.706 70.2174 409.578 79.9622C412.772 82.3507 410.446 88.187 409.022 89.6113C407.522 91.1113 399.863 93.7495 399.863 93.7495C399.863 93.7495 400.984 95.335 401.022 96.5C401.055 97.5169 400.288 99 400.288 99C399.566 102.204 399.419 106.386 399.192 110.648C409.305 107.487 420.288 111.112 424.022 111.112C425.256 111.112 425.485 112.117 425.092 113.632C430.103 111.905 435.872 111.228 438.522 112.111C439.837 112.55 440.384 114.142 440.573 116.239C446.022 116.277 447.022 117 447.022 117L459.022 117.5L449.022 113.612C441.522 110.612 434.022 95.1126 435.022 79.6119C436.022 64.1113 439.022 53.1126 439.522 49.6119C440.022 46.1113 445.522 29.1119 451.022 21.1113C456.522 13.1107 476.522 -0.888557 500.522 0.611443C524.522 2.11144 543.022 13.6115 543.022 13.6115C577.522 34.1115 570.522 84.1119 570.522 84.1119C567.968 100.164 562.22 109.295 558.522 114.419L557.511 122.5C557.511 122.5 571.022 104.111 579.022 102.611C587.022 101.111 609.522 110.612 613.022 118.612C616.522 126.612 592.522 194.612 590.022 200.612C590.022 200.612 588.321 207.165 583.804 216.5C572.293 240.285 547.989 282.125 527.522 279.612C527.522 279.612 544.522 285.611 559.522 281.111C574.522 276.611 578.022 266.112 578.022 266.112C578.022 266.112 592.022 243.611 593.522 234.112C595.022 224.612 593.522 219.611 593.522 213.612C593.522 207.612 602.611 182.611 601.522 174.611C600.432 166.611 613.522 152.112 618.522 149.611C623.522 147.111 646.022 146.611 646.022 146.611C646.022 146.611 669.33 140.694 674.522 140V302.5H0.0219727C0.0219727 302.5 5.52197 301.5 9.02196 300.242C13.7535 298.542 18.5628 296.5 20.522 296.5Z" fill="#F0F1F2"/>
<path d="M415.823 53.4918C416.824 55.7007 418.013 56.5208 420.336 57.5313C423.315 56.7166 426.284 55.3452 428.022 53.1113C431.522 48.6113 432.522 41.1113 427.022 39.1113C426.124 38.7847 425.145 38.6982 424.144 38.8059C422.564 41.5391 419.24 41.9218 416.923 42.706C415.6 44.1284 414.658 45.7913 414.411 47.4413C414.81 49.3723 416.022 50.8706 416.022 52.6113C416.022 52.6113 415.978 52.9666 415.823 53.4918Z" fill="#DBA5EE"/>
<path d="M411.522 23.1113C398.522 24.6113 401.022 35.1113 401.022 36.1113C401.022 36.7389 402.203 38.7447 403.948 40.399C409.631 40.1287 416.512 42.6485 416.161 43C416.398 42.8937 416.654 42.7971 416.923 42.706C418.845 40.641 421.572 39.0827 424.144 38.8059C424.621 37.9806 424.939 36.941 425.022 35.6113C425.522 27.6113 424.522 21.6113 411.522 23.1113Z" fill="#FFC785"/>
<path d="M424.144 38.8059C422.564 41.5391 419.24 41.9218 416.923 42.706C418.845 40.641 421.572 39.0827 424.144 38.8059Z" fill="#DBA5EE"/>
<path d="M397.522 53.1113C398.876 54.4656 402.138 55.9666 405.399 57.0579C407.891 57.6057 410.457 58.0585 412.022 57.6113C414.479 56.9093 415.457 54.7289 415.823 53.4918C415.38 52.5153 414.973 51.2675 414.522 49.6119C414.329 48.9058 414.301 48.1748 414.411 47.4413C414.237 46.599 414.218 45.6743 414.522 44.6113C414.712 43.9451 415.192 43.4963 415.849 43.1511C414.645 43.511 410.633 43.5004 407.522 42.6113C406.218 42.2389 404.984 41.3809 403.948 40.399C401.546 40.5132 399.359 41.1259 398.022 42.6113C393.522 47.6113 395.022 50.6113 397.522 53.1113Z" fill="#ACE6B5"/>
<path d="M416.161 43C416.512 42.6485 409.631 40.1287 403.948 40.399C404.984 41.3809 406.218 42.2389 407.522 42.6113C410.633 43.5004 414.645 43.511 415.849 43.1511C415.949 43.0985 416.053 43.0482 416.161 43Z" fill="#ACE6B5"/>
<path d="M401.022 96.6113C398.522 102.611 400.022 115.112 397.522 123.111C395.022 131.111 383.022 154.611 380.522 151.611C378.022 148.611 378.022 128.613 389.522 116.612C401.022 104.611 419.022 111.112 424.022 111.112C429.022 111.112 417.522 127.611 415.022 127.611C412.522 127.612 413.522 123.612 417.022 118.612C420.522 113.612 434.022 110.611 438.522 112.111C443.022 113.612 438.522 128.611 441.522 131.111C444.522 133.611 457.522 143.112 467.022 145.612C476.522 148.111 486.022 150.612 491.022 151.112C496.022 151.611 523.522 153.111 530.022 151.611C536.522 150.111 540.022 143.611 540.022 143.611C540.022 143.611 571.022 104.111 579.022 102.611C587.022 101.111 609.522 110.612 613.022 118.612C616.522 126.612 590.522 200.501 588.022 206.5C588.022 206.5 556.022 283.111 527.522 279.612C499.022 276.113 493.522 267.613 495.022 266.112C496.522 264.611 507.522 271.612 515.522 272.112C523.522 272.612 525.022 266.112 525.022 266.112C525.022 266.112 530.522 220.112 538.022 220.612C545.522 221.111 553.912 234.612 565.022 232.112C576.132 229.611 579.522 222.112 584.022 217.112C588.522 212.111 587.022 196.612 576.522 195.612C566.022 194.612 538.522 186.111 537.022 181.112C535.522 176.112 541.522 148.112 551.022 151.112C560.522 154.112 590.022 169.112 593.522 169.112C597.022 169.112 596.022 165.111 593.522 164.612C591.022 164.112 573.022 158.611 572.022 154.112C571.022 149.612 576.522 138.612 576.522 138.612C576.522 138.612 591.522 120.611 586.022 113.111C580.522 105.611 568.522 116.612 568.522 116.612C568.522 116.612 559.522 137.111 550.522 141.112C541.522 145.112 524.022 142.612 511.022 142.612C498.022 142.612 446.022 118.612 446.022 118.612C446.022 118.612 446.022 115.112 436.022 116.612C426.022 118.112 395.022 159.111 392.522 177.112C390.022 195.112 424.022 215.112 424.022 215.112C424.022 215.112 469.022 236.112 476.522 239.112C484.022 242.111 485.022 248.612 485.022 251.112C485.022 253.611 470.522 266.113 478.022 272.612C485.522 279.111 515.522 282.112 515.522 282.112C515.522 282.112 544.522 285.611 559.522 281.111C574.522 276.611 578.022 266.112 578.022 266.112C578.022 266.112 592.022 243.611 593.522 234.112C595.022 224.612 593.522 219.611 593.522 213.612C593.522 207.612 602.611 182.611 601.522 174.611C600.432 166.611 613.522 152.112 618.522 149.611C623.522 147.111 646.022 146.611 646.022 146.611C646.022 146.611 669.33 140.694 674.522 140M401.022 96.6113C401.412 95.674 400.924 94.7245 399.863 93.7495M401.022 96.6113C401.022 96.6113 397.022 57.6113 398.022 57.6113C399.022 57.6113 410.022 60.1113 410.522 60.6113C411.022 61.1113 401.022 80.1113 401.522 81.1113C402.022 82.1113 406.022 74.6113 406.522 72.6113C407.022 70.6113 402.022 72.6113 402.022 71.1113C402.022 69.6113 408.522 70.1113 409.022 69.6113C409.522 69.1113 403.522 68.1113 403.522 66.6113C403.522 65.1113 411.022 65.6113 411.522 65.1113C412.022 64.6113 397.022 57.1113 398.522 56.1113C399.351 55.5585 402.319 56.3808 405.399 57.0579M399.863 93.7495C400.393 93.7192 400.789 93.519 401.022 93.1113C401.022 93.1113 424.022 59.1113 420.522 57.6113C420.459 57.5845 420.397 57.5578 420.336 57.5313M399.863 93.7495C395.842 93.9793 384.09 84.4369 377.022 81.5537C369.022 78.2903 365.522 111.612 365.522 122.612C365.522 133.612 371.522 157.611 380.522 160.611C389.522 163.611 399.022 160.112 409.022 154.112C419.022 148.111 427.522 118.113 443.022 116.612C458.522 115.111 502.022 131.111 514.522 110.611C527.022 90.1113 535.792 61.6119 527.022 36.6119C518.252 11.6119 456.022 25.6113 460.022 19.1113C464.022 12.6113 503.022 4.61254 519.522 21.6119C536.022 38.6113 537.022 47.6119 537.022 60.1119C537.022 72.612 519.522 122.612 507.022 130.112C494.522 137.612 456.522 116.612 449.022 113.612C441.522 110.612 434.022 95.1126 435.022 79.6119C436.022 64.1113 439.022 53.1126 439.522 49.6119C440.022 46.1113 445.522 29.1119 451.022 21.1113C456.522 13.1107 476.522 -0.888557 500.522 0.611443C524.522 2.11144 543.022 13.6115 543.022 13.6115C577.522 34.1115 570.522 84.1119 570.522 84.1119C567.022 106.112 557.522 115.112 555.522 118.612C553.522 122.112 546.522 129.112 542.022 130.612C537.522 132.112 523.522 125.612 521.522 122.612C519.522 119.612 519.022 115.112 521.522 105.612C524.022 96.1119 530.022 85.1119 537.022 84.1119C544.022 83.1119 546.022 84.1119 553.022 85.6119C560.022 87.1119 559.652 109.112 558.522 115.112C557.391 121.112 555.522 142.612 555.522 142.612C555.522 142.612 557.522 171.612 555.522 179.112C553.522 186.612 545.022 200.612 538.522 209.112C532.022 217.612 520.022 224.112 517.022 225.112C514.022 226.112 503.522 228.612 491.022 227.612C478.522 226.612 489.522 212.112 489.022 202.612C488.522 193.112 471.022 179.112 471.022 179.112C471.022 179.112 459.522 173.112 455.522 179.112C451.522 185.112 454.022 190.112 454.022 192.612C454.022 195.112 461.522 201.112 462.522 197.612C463.522 194.112 461.022 192.612 458.022 191.112C455.022 189.612 439.022 185.612 436.022 191.112C433.022 196.612 441.522 206.112 444.522 209.612C447.522 213.112 463.355 220.112 472.022 224.112C472.022 224.112 480.522 226.612 482.522 222.112C484.522 217.612 483.022 204.612 487.522 198.612C492.022 192.612 502.522 185.612 505.522 183.612C508.522 181.612 516.022 178.612 521.522 181.112C527.022 183.612 533.522 194.112 531.022 196.612C528.522 199.112 517.022 189.612 513.522 187.112C510.022 184.612 497.022 169.112 498.022 156.612C499.022 144.112 511.522 128.612 517.022 127.612C522.522 126.612 533.022 129.612 542.022 134.112C551.022 138.612 550.022 161.112 549.022 169.112C548.022 177.112 539.522 199.112 537.022 202.612C534.522 206.112 528.522 209.612 511.022 215.112C493.522 220.612 495.022 242.612 487.522 248.112C480.022 253.612 462.522 239.112 458.022 239.112C453.522 239.112 448.022 240.112 451.022 248.112C454.022 256.112 472.092 263.612 476.522 263.612C480.952 263.612 483.522 255.719 481.522 251.112C479.522 246.505 451.022 246.612 446.022 243.612C441.022 240.612 409.022 220.612 407.522 217.112C406.022 213.612 407.522 202.612 404.522 197.612C401.522 192.612 398.522 191.112 398.522 191.112C398.522 191.112 351.522 141.112 337.522 143.612C323.522 146.112 302.522 199.739 304.022 204.612C305.522 209.485 348.522 207.612 351.022 204.612C353.522 201.612 352.522 189.112 351.522 184.112C350.522 179.112 345.522 173.112 341.522 174.112C337.522 175.112 337.022 177.112 337.522 180.612C338.022 184.112 353.022 200.112 357.022 202.612C361.022 205.112 380.522 213.612 389.522 209.612C398.522 205.612 398.022 195.612 400.522 196.612C403.022 197.612 400.522 224.112 392.522 227.612C384.522 231.112 333.022 212.612 324.522 217.112C316.022 221.612 330.522 250.612 326.022 254.612C321.522 258.612 294.522 254.612 290.022 252.612C285.522 250.612 285.522 242.112 285.522 237.112C285.522 232.112 283.522 225.112 279.022 225.112C274.522 225.112 275.022 231.612 275.022 237.112C275.022 242.612 276.522 262.612 280.022 264.612C283.522 266.612 305.522 265.612 319.022 264.612C332.522 263.612 351.022 277.85 358.522 276.112C366.022 274.374 365.022 273.612 365.522 263.612C366.022 253.612 354.022 209.143 340.022 213.612C326.022 218.081 354.022 271.112 370.022 278.112C386.022 285.112 384.022 282.612 403.022 284.112C422.022 285.612 472.022 272.112 471.022 267.612C470.022 263.112 462.022 266.112 437.522 258.612C413.022 251.112 413.522 225.112 402.022 215.612C390.522 206.112 305.022 209.612 300.522 209.612C296.022 209.612 259.522 211.612 259.022 226.112C258.522 240.612 262.522 258.112 264.022 263.112C265.522 268.112 269.522 277.112 272.522 272.112C275.522 267.112 263.522 209.612 260.522 205.612C257.522 201.612 248.522 186.112 232.022 190.112C215.522 194.112 223.522 237.112 223.522 237.112C223.522 237.112 232.522 277.612 242.522 276.112C252.522 274.612 257.522 274.612 256.522 273.112C255.522 271.612 225.022 272.112 222.522 273.112C220.022 274.112 212.522 276.112 197.022 278.112C181.522 280.112 161.522 293 149.522 292.5C137.522 292 118.022 283.5 107.522 289C97.022 294.5 76.522 292 71.522 292.5C66.522 293 59.2639 296.297 51.522 297C39.62 298.081 22.2057 296.597 21.022 296.5C15.7281 296.065 12.1586 299.647 7.02197 301C2.76189 302.122 0.0219727 302 0.0219727 302M399.863 93.7495C394.129 88.483 371.662 82.4716 380.522 73.6113C391.022 63.1107 393.022 66.6119 395.522 68.1113C398.022 69.6107 397.022 76.6113 401.022 77.6113C405.022 78.6113 405.022 77.5056 409.022 79.6119C413.022 81.7183 410.522 88.1113 409.022 89.6113C407.522 91.1113 399.863 93.7495 399.863 93.7495ZM416.161 43C416.512 42.6485 409.631 40.1287 403.948 40.399M416.161 43C416.398 42.8937 416.654 42.7971 416.923 42.706M416.161 43C416.053 43.0482 415.949 43.0985 415.849 43.1511M416.161 43C416.105 43.0555 415.999 43.1062 415.849 43.1511M415.823 53.4918C416.824 55.7007 418.013 56.5208 420.336 57.5313M415.823 53.4918C415.978 52.9666 416.022 52.6113 416.022 52.6113C416.022 50.8706 414.81 49.3723 414.411 47.4413M415.823 53.4918C415.457 54.7289 414.479 56.9093 412.022 57.6113C410.457 58.0585 407.891 57.6057 405.399 57.0579M415.823 53.4918C415.38 52.5153 414.973 51.2675 414.522 49.6119C414.329 48.9058 414.301 48.1748 414.411 47.4413M420.336 57.5313C423.315 56.7166 426.284 55.3452 428.022 53.1113C431.522 48.6113 432.522 41.1113 427.022 39.1113C426.124 38.7847 425.145 38.6982 424.144 38.8059M420.336 57.5313C417.315 58.3577 414.284 58.6113 412.522 58.6113C410.918 58.6113 408.159 57.9812 405.399 57.0579M424.144 38.8059C422.564 41.5391 419.24 41.9218 416.923 42.706M424.144 38.8059C421.572 39.0827 418.845 40.641 416.923 42.706M424.144 38.8059C424.621 37.9806 424.939 36.941 425.022 35.6113C425.522 27.6113 424.522 21.6113 411.522 23.1113C398.522 24.6113 401.022 35.1113 401.022 36.1113C401.022 36.7389 402.203 38.7447 403.948 40.399M416.923 42.706C415.6 44.1284 414.658 45.7913 414.411 47.4413M416.923 42.706C416.532 42.8385 416.169 42.9824 415.849 43.1511M414.411 47.4413C414.237 46.599 414.218 45.6743 414.522 44.6113C414.712 43.9451 415.192 43.4963 415.849 43.1511M403.948 40.399C404.984 41.3809 406.218 42.2389 407.522 42.6113C410.633 43.5004 414.645 43.511 415.849 43.1511M403.948 40.399C401.546 40.5132 399.359 41.1259 398.022 42.6113C393.522 47.6113 395.022 50.6113 397.522 53.1113C398.876 54.4656 402.138 55.9666 405.399 57.0579" stroke="#313131"/>
</svg>
