<svg width="1143" height="303" viewBox="0 0 1143 303" fill="none" xmlns="http://www.w3.org/2000/svg">
<path d="M119.5 278.112C132 277.112 170 278.612 181 278.612C192 278.612 248 269.612 262 270.612C276 271.612 313.709 279.757 321.5 278.112C329.291 276.467 355 284.112 376 284.112C397 284.112 400.5 271.112 413.5 268.112C426.5 265.112 445.5 276.112 465 276.112C484.5 276.112 491 268.612 496 268.112C501 267.612 500 269.612 506.5 268.112C513 266.612 523 261.612 535 262.112C547 262.612 555.5 280.112 571 278.112C586.5 276.112 594 274.112 596.5 273.112C597.559 272.688 603.641 272.355 610.377 272.224C603.102 262.32 597.5 237.112 597.5 237.112C597.5 237.112 589.5 194.112 606 190.112C622.5 186.112 631.5 201.612 634.5 205.612C635.288 206.663 636.697 211.406 638.293 217.92C648.686 210.793 671.042 209.612 674.5 209.612C675.811 209.612 691.56 208.739 705.077 208.378C695.445 208.441 679.055 208.039 678 204.612C676.5 199.739 697.5 146.112 711.5 143.612C722.053 141.727 752.896 171.179 766.748 185.112C766.845 183.422 766.079 180.145 766.5 177.112C767.169 172.296 769.878 165.833 773.679 158.921C767.052 161.674 760.659 162.664 754.5 160.611C745.5 157.611 739.5 133.612 739.5 122.612C739.5 111.612 743 78.2903 751 81.5537L755.816 83C752.421 80.2356 750.961 77.1508 754.5 73.6113C765 63.1107 767 66.6119 769.5 68.1113C771.47 69.2931 771.267 73.8926 773.05 76.2776C772.208 66.8133 771.514 57.6113 772 57.6113L772.5 56.1113C773.329 55.5585 776.297 56.3808 779.377 57.0579C782.137 57.9812 784.896 58.6113 786.5 58.6113C788.262 58.6113 791.293 58.3577 794.314 57.5313C794.375 57.5578 794.437 57.5845 794.5 57.6113C796.524 58.4789 789.684 70.2174 783.556 79.9622C786.75 82.3507 784.424 88.187 783 89.6113C781.5 91.1113 773.841 93.7495 773.841 93.7495C773.841 93.7495 774.962 95.335 775 96.5C775.033 97.5169 774.266 99 774.266 99C773.544 102.204 773.397 106.386 773.17 110.648C783.283 107.487 794.266 111.112 798 111.112C799.234 111.112 799.463 112.117 799.07 113.632C804.081 111.905 809.85 111.228 812.5 112.111C813.815 112.55 814.362 114.142 814.551 116.239C820 116.277 821 117 821 117L833 117.5L823 113.612C815.5 110.612 808 95.1126 809 79.6119C810 64.1113 813 53.1126 813.5 49.6119C814 46.1113 819.5 29.1119 825 21.1113C830.5 13.1107 850.5 -0.888557 874.5 0.611443C898.5 2.11144 917 13.6115 917 13.6115C951.5 34.1115 944.5 84.1119 944.5 84.1119C941.946 100.164 936.198 109.295 932.5 114.419L931.489 122.5C931.489 122.5 945 104.111 953 102.611C961 101.111 983.5 110.612 987 118.612C990.5 126.612 966.5 194.612 964 200.612C964 200.612 962.299 207.165 957.782 216.5C946.271 240.285 921.967 282.125 901.5 279.612C901.5 279.612 918.5 285.611 933.5 281.111C948.5 276.611 952 266.112 952 266.112C952 266.112 966 243.611 967.5 234.112C969 224.612 967.5 219.611 967.5 213.612C967.5 207.612 976.589 182.611 975.5 174.611C974.41 166.611 987.5 152.112 992.5 149.611C997.5 147.111 1020 146.611 1020 146.611C1020 146.611 1043.31 140.694 1048.5 140C1053.69 139.306 1073.49 147.106 1088.5 154.112C1107.81 163.126 1129.82 191.483 1142.5 202.612V303H0C12 303 17.5 296.5 26 296.5C30.4056 296.5 52.8782 291.794 60.5 290.5C67.5833 289.297 93 285.612 93 285.612C93 285.612 107 279.112 119.5 278.112Z" fill="#F0F1F2"/>
<path d="M789.801 53.4918C790.802 55.7007 791.991 56.5208 794.314 57.5313C797.293 56.7166 800.262 55.3452 802 53.1113C805.5 48.6113 806.5 41.1113 801 39.1113C800.102 38.7847 799.123 38.6982 798.122 38.8059C796.542 41.5391 793.218 41.9218 790.901 42.706C789.578 44.1284 788.636 45.7913 788.389 47.4413C788.788 49.3723 790 50.8706 790 52.6113C790 52.6113 789.956 52.9666 789.801 53.4918Z" fill="#DBA5EE"/>
<path d="M785.5 23.1113C772.5 24.6113 775 35.1113 775 36.1113C775 36.7389 776.181 38.7447 777.926 40.399C783.609 40.1287 790.49 42.6485 790.139 43C790.376 42.8937 790.632 42.7971 790.901 42.706C792.823 40.641 795.55 39.0827 798.122 38.8059C798.599 37.9806 798.917 36.941 799 35.6113C799.5 27.6113 798.5 21.6113 785.5 23.1113Z" fill="#FFC785"/>
<path d="M798.122 38.8059C796.542 41.5391 793.218 41.9218 790.901 42.706C792.823 40.641 795.55 39.0827 798.122 38.8059Z" fill="#DBA5EE"/>
<path d="M771.5 53.1113C772.854 54.4656 776.116 55.9666 779.377 57.0579C781.869 57.6057 784.435 58.0585 786 57.6113C788.457 56.9093 789.435 54.7289 789.801 53.4918C789.358 52.5153 788.951 51.2675 788.5 49.6119C788.307 48.9058 788.28 48.1748 788.389 47.4413C788.215 46.599 788.196 45.6743 788.5 44.6113C788.69 43.9451 789.17 43.4963 789.827 43.1511C788.623 43.511 784.611 43.5004 781.5 42.6113C780.196 42.2389 778.962 41.3809 777.926 40.399C775.524 40.5132 773.337 41.1259 772 42.6113C767.5 47.6113 769 50.6113 771.5 53.1113Z" fill="#ACE6B5"/>
<path d="M790.139 43C790.49 42.6485 783.609 40.1287 777.926 40.399C778.962 41.3809 780.196 42.2389 781.5 42.6113C784.611 43.5004 788.623 43.511 789.827 43.1511C789.927 43.0985 790.031 43.0482 790.139 43Z" fill="#ACE6B5"/>
<path d="M775 96.6113C772.5 102.611 774 115.112 771.5 123.111C769 131.111 757 154.611 754.5 151.611C752 148.611 752 128.613 763.5 116.612C775 104.611 793 111.112 798 111.112C803 111.112 791.5 127.611 789 127.611C786.5 127.612 787.5 123.612 791 118.612C794.5 113.612 808 110.611 812.5 112.111C817 113.612 812.5 128.611 815.5 131.111C818.5 133.611 831.5 143.112 841 145.612C850.5 148.111 860 150.612 865 151.112C870 151.611 897.5 153.111 904 151.611C910.5 150.111 914 143.611 914 143.611C914 143.611 945 104.111 953 102.611C961 101.111 983.5 110.612 987 118.612C990.5 126.612 965 201.001 962.5 207C962.5 207 930 283.111 901.5 279.612C873 276.113 867.5 267.613 869 266.112C870.5 264.611 881.5 271.612 889.5 272.112C897.5 272.612 899 266.112 899 266.112C899 266.112 904.5 220.112 912 220.612C919.5 221.111 927.89 234.612 939 232.112C950.11 229.611 953.5 222.112 958 217.112C962.5 212.111 961 196.612 950.5 195.612C940 194.612 912.5 186.111 911 181.112C909.5 176.112 915.5 148.112 925 151.112C934.5 154.112 964 169.112 967.5 169.112C971 169.112 970 165.111 967.5 164.612C965 164.112 947 158.611 946 154.112C945 149.612 950.5 138.612 950.5 138.612C950.5 138.612 965.5 120.611 960 113.111C954.5 105.611 942.5 116.612 942.5 116.612C942.5 116.612 933.5 137.111 924.5 141.112C915.5 145.112 898 142.612 885 142.612C872 142.612 820 118.612 820 118.612C820 118.612 820 115.112 810 116.612C800 118.112 769 159.111 766.5 177.112C764 195.112 798 215.112 798 215.112C798 215.112 843 236.112 850.5 239.112C858 242.111 859 248.612 859 251.112C859 253.611 844.5 266.113 852 272.612C859.5 279.111 889.5 282.112 889.5 282.112C889.5 282.112 918.5 285.611 933.5 281.111C948.5 276.611 952 266.112 952 266.112C952 266.112 966 243.611 967.5 234.112C969 224.612 967.5 219.611 967.5 213.612C967.5 207.612 976.589 182.611 975.5 174.611C974.41 166.611 987.5 152.112 992.5 149.611C997.5 147.111 1020 146.611 1020 146.611C1020 146.611 1043.31 140.694 1048.5 140C1053.69 139.306 1073.49 147.106 1088.5 154.112C1107.81 163.126 1129.82 191.483 1142.5 202.612M775 96.6113C775.39 95.674 774.902 94.7245 773.841 93.7495M775 96.6113C775 96.6113 771 57.6113 772 57.6113C773 57.6113 784 60.1113 784.5 60.6113C785 61.1113 775 80.1113 775.5 81.1113C776 82.1113 780 74.6113 780.5 72.6113C781 70.6113 776 72.6113 776 71.1113C776 69.6113 782.5 70.1113 783 69.6113C783.5 69.1113 777.5 68.1113 777.5 66.6113C777.5 65.1113 785 65.6113 785.5 65.1113C786 64.6113 771 57.1113 772.5 56.1113C773.329 55.5585 776.297 56.3808 779.377 57.0579M773.841 93.7495C774.371 93.7192 774.767 93.519 775 93.1113C775 93.1113 798 59.1113 794.5 57.6113C794.437 57.5845 794.375 57.5578 794.314 57.5313M773.841 93.7495C769.82 93.9793 758.068 84.4369 751 81.5537C743 78.2903 739.5 111.612 739.5 122.612C739.5 133.612 745.5 157.611 754.5 160.611C763.5 163.611 773 160.112 783 154.112C793 148.111 801.5 118.113 817 116.612C832.5 115.111 876 131.111 888.5 110.611C901 90.1113 909.77 61.6119 901 36.6119C892.23 11.6119 830 25.6113 834 19.1113C838 12.6113 877 4.61254 893.5 21.6119C910 38.6113 911 47.6119 911 60.1119C911 72.612 893.5 122.612 881 130.112C868.5 137.612 830.5 116.612 823 113.612C815.5 110.612 808 95.1126 809 79.6119C810 64.1113 813 53.1126 813.5 49.6119C814 46.1113 819.5 29.1119 825 21.1113C830.5 13.1107 850.5 -0.888557 874.5 0.611443C898.5 2.11144 917 13.6115 917 13.6115C951.5 34.1115 944.5 84.1119 944.5 84.1119C941 106.112 931.5 115.112 929.5 118.612C927.5 122.112 920.5 129.112 916 130.612C911.5 132.112 897.5 125.612 895.5 122.612C893.5 119.612 893 115.112 895.5 105.612C898 96.1119 904 85.1119 911 84.1119C918 83.1119 920 84.1119 927 85.6119C934 87.1119 933.63 109.112 932.5 115.112C931.369 121.112 929.5 142.612 929.5 142.612C929.5 142.612 931.5 171.612 929.5 179.112C927.5 186.612 919 200.612 912.5 209.112C906 217.612 894 224.112 891 225.112C888 226.112 877.5 228.612 865 227.612C852.5 226.612 863.5 212.112 863 202.612C862.5 193.112 845 179.112 845 179.112C845 179.112 833.5 173.112 829.5 179.112C825.5 185.112 828 190.112 828 192.612C828 195.112 835.5 201.112 836.5 197.612C837.5 194.112 835 192.612 832 191.112C829 189.612 813 185.612 810 191.112C807 196.612 815.5 206.112 818.5 209.612C821.5 213.112 837.333 220.112 846 224.112C846 224.112 854.5 226.612 856.5 222.112C858.5 217.612 857 204.612 861.5 198.612C866 192.612 876.5 185.612 879.5 183.612C882.5 181.612 890 178.612 895.5 181.112C901 183.612 907.5 194.112 905 196.612C902.5 199.112 891 189.612 887.5 187.112C884 184.612 871 169.112 872 156.612C873 144.112 885.5 128.612 891 127.612C896.5 126.612 907 129.612 916 134.112C925 138.612 924 161.112 923 169.112C922 177.112 913.5 199.112 911 202.612C908.5 206.112 902.5 209.612 885 215.112C867.5 220.612 869 242.612 861.5 248.112C854 253.612 836.5 239.112 832 239.112C827.5 239.112 822 240.112 825 248.112C828 256.112 846.07 263.612 850.5 263.612C854.93 263.612 857.5 255.719 855.5 251.112C853.5 246.505 825 246.612 820 243.612C815 240.612 783 220.612 781.5 217.112C780 213.612 781.5 202.612 778.5 197.612C775.5 192.612 772.5 191.112 772.5 191.112C772.5 191.112 725.5 141.112 711.5 143.612C697.5 146.112 676.5 199.739 678 204.612C679.5 209.485 722.5 207.612 725 204.612C727.5 201.612 726.5 189.112 725.5 184.112C724.5 179.112 719.5 173.112 715.5 174.112C711.5 175.112 711 177.112 711.5 180.612C712 184.112 727 200.112 731 202.612C735 205.112 754.5 213.612 763.5 209.612C772.5 205.612 772 195.612 774.5 196.612C777 197.612 774.5 224.112 766.5 227.612C758.5 231.112 707 212.612 698.5 217.112C690 221.612 704.5 250.612 700 254.612C695.5 258.612 668.5 254.612 664 252.612C659.5 250.612 659.5 242.112 659.5 237.112C659.5 232.112 657.5 225.112 653 225.112C648.5 225.112 649 231.612 649 237.112C649 242.612 650.5 262.612 654 264.612C657.5 266.612 679.5 265.612 693 264.612C706.5 263.612 725 277.85 732.5 276.112C740 274.374 739 273.612 739.5 263.612C740 253.612 728 209.143 714 213.612C700 218.081 728 271.112 744 278.112C760 285.112 758 282.612 777 284.112C796 285.612 846 272.112 845 267.612C844 263.112 836 266.112 811.5 258.612C787 251.112 787.5 225.112 776 215.612C764.5 206.112 679 209.612 674.5 209.612C670 209.612 633.5 211.612 633 226.112C632.5 240.612 636.5 258.112 638 263.112C639.5 268.112 643.5 277.112 646.5 272.112C649.5 267.112 637.5 209.612 634.5 205.612C631.5 201.612 622.5 186.112 606 190.112C589.5 194.112 597.5 237.112 597.5 237.112C597.5 237.112 606.5 277.612 616.5 276.112C626.5 274.612 631.5 274.612 630.5 273.112C629.5 271.612 599 272.112 596.5 273.112C594 274.112 586.5 276.112 571 278.112C555.5 280.112 547 262.612 535 262.112C523 261.612 513 266.612 506.5 268.112C500 269.612 501 267.612 496 268.112C491 268.612 484.5 276.112 465 276.112C445.5 276.112 426.5 265.112 413.5 268.112C400.5 271.112 397 284.112 376 284.112C355 284.112 329.291 276.467 321.5 278.112C313.709 279.757 276 271.612 262 270.612C248 269.612 192 278.612 181 278.612C170 278.612 132 277.112 119.5 278.112C107 279.112 93 285.612 93 285.612C73.7938 287.296 32 296.112 32 296.112C32 296.112 26.1837 296.597 25 296.5C19.7061 296.065 16.1366 299.647 11 301C6.73992 302.122 4 302 4 302M773.841 93.7495C768.107 88.483 745.64 82.4716 754.5 73.6113C765 63.1107 767 66.6119 769.5 68.1113C772 69.6107 771 76.6113 775 77.6113C779 78.6113 779 77.5056 783 79.6119C787 81.7183 784.5 88.1113 783 89.6113C781.5 91.1113 773.841 93.7495 773.841 93.7495ZM790.139 43C790.49 42.6485 783.609 40.1287 777.926 40.399M790.139 43C790.376 42.8937 790.632 42.7971 790.901 42.706M790.139 43C790.031 43.0482 789.927 43.0985 789.827 43.1511M790.139 43C790.083 43.0555 789.977 43.1062 789.827 43.1511M789.801 53.4918C790.802 55.7007 791.991 56.5208 794.314 57.5313M789.801 53.4918C789.956 52.9666 790 52.6113 790 52.6113C790 50.8706 788.788 49.3723 788.389 47.4413M789.801 53.4918C789.435 54.7289 788.457 56.9093 786 57.6113C784.435 58.0585 781.869 57.6057 779.377 57.0579M789.801 53.4918C789.358 52.5153 788.951 51.2675 788.5 49.6119C788.307 48.9058 788.28 48.1748 788.389 47.4413M794.314 57.5313C797.293 56.7166 800.262 55.3452 802 53.1113C805.5 48.6113 806.5 41.1113 801 39.1113C800.102 38.7847 799.123 38.6982 798.122 38.8059M794.314 57.5313C791.293 58.3577 788.262 58.6113 786.5 58.6113C784.896 58.6113 782.137 57.9812 779.377 57.0579M798.122 38.8059C796.542 41.5391 793.218 41.9218 790.901 42.706M798.122 38.8059C795.55 39.0827 792.823 40.641 790.901 42.706M798.122 38.8059C798.599 37.9806 798.917 36.941 799 35.6113C799.5 27.6113 798.5 21.6113 785.5 23.1113C772.5 24.6113 775 35.1113 775 36.1113C775 36.7389 776.181 38.7447 777.926 40.399M790.901 42.706C789.578 44.1284 788.636 45.7913 788.389 47.4413M790.901 42.706C790.51 42.8385 790.147 42.9824 789.827 43.1511M788.389 47.4413C788.215 46.599 788.196 45.6743 788.5 44.6113C788.69 43.9451 789.17 43.4963 789.827 43.1511M777.926 40.399C778.962 41.3809 780.196 42.2389 781.5 42.6113C784.611 43.5004 788.623 43.511 789.827 43.1511M777.926 40.399C775.524 40.5132 773.337 41.1259 772 42.6113C767.5 47.6113 769 50.6113 771.5 53.1113C772.854 54.4656 776.116 55.9666 779.377 57.0579" stroke="#313131"/>
</svg>
