<svg version="1.2" xmlns="http://www.w3.org/2000/svg" viewBox="0 0 208 254" width="208" height="254">
	<title>satellite-dish-black-svg</title>
	<style>
		.s0 { fill: none;stroke: #313131 } 
	</style>
	<g id="Layer">
		<path id="Layer" fill-rule="evenodd" class="s0" d="m56.2 239.2c0 0 55 5.8 57.7 5.8 2.6 0 60.8-3.7 62.4-5.8 1.5-2.1 3.1-8.9 0-8.9-3.2 0-57.2 5.2-62.4 5.8-5.3 0.5-57.7-8.4-60.4-7.9-2.6 0.5-2 12.6 0 6.8 2.1-5.8 14.2-22.1 21-26.8 6.8-4.7 3.7 6.3 3.2 7.4-0.6 1-15.2 12.6-15.2 12.6 0 0 9.9-13.2 12.5-14.7 2.7-1.6 31.5 1 31.5 2.1 0 1 0 15.2 0 15.2 0 0-13.6 0-14.7 0-1 0-1-13.1 0-14.2 1.1-1 12.6 0 13.1 1.1 0.6 1-0.5 14.2 0.6 14.7 1 0.5 5.2 1.6 6.3 0 1-1.6-1.1-14.7 0-15.8 1-1 19.9-2.1 20.9-1 1.1 1 1.1 13.6 0.6 14.7-0.6 1-16.8 1.6-17.9 0.5-1-1-1-11 0-12.1 1.1-1 31.5-3.1 35.2-3.1 3.6 0 12.5 14.7 15.2 14.7 2.6 0 5.7-0.5 6.3-2.1 0.5-1.6-19.4-22.1-21.5-22.1-2.1 0-37.8 2.1-42 2.1-4.2 0-26.7-2.1-28.8-3.2-2.1-1-1.6-6.3 0-8.4 1.5-2.1 67.1-1 68.1 0 1.1 1.1 1.1 5.8 1.1 6.9 0 1-2.1 1-2.6 0-0.6-1.1-1.6-4.8-1.1-5.3 0.5-0.5 5.3-0.5 5.3-1.6 0-1 1.5-4.7 0-4.7-1.6 0-71.4 0-72.9 0-1.6 0-1.6 10.5-1.1 11.6 0.5 1 13.1 0 15.2 0 2.1 0 8.4-14.8 8.4-16.3 0-1.6-1-9 0-10 1.1-1.1 22.6-1.1 23.6 0 1.1 1 0 8.4 0 10 0 1.5 8.9 14.7 7.9 16.3-1.1 1.5-21.5 2.6-23.1 1.5-1.6-1-0.5-16.8-2.1-17.8-1.6-1.1-2.6 0-3.7-1.1-1-1-1-14.7 0-15.2 1.1-0.6 21.5 1.5 22.6 0 1-1.6 1-9.5 0-10-1.1-0.5-23.1-2.1-24.1-1.6-1.1 0.5-2.1 8.4-1.1 8.9 1.1 0.6 19.4 0 19.9-1 0.6-1.1 3.7-9.5 2.7-10-1.1-0.5-23.6 0.5-24.2 0-0.5-0.5 1.1-7.4 0-7.9-1-0.5-8.3 0.5-10.4 0-2.1-0.5-5.3-6.8-5.3-8.9 0-2.1-0.5-15.8 0-17.4 0.5-1.5 4.7-7.9 5.3-6.8 0.5 1-1.1 4.2-1.1 5.3 0 1-0.5 10.5 0 12.6 0.5 2.1 2.1 3.7 3.2 4.2 1 0.5 26.2-2.7 28.3-4.2 2.1-1.6 3.1-5.8 3.1-6.9 0-1 0.5-9.4 0-11-0.5-1.6-2.1-3.7-1.6-5.8 0.6-2.1 0.6-3.1 1.6-3.1 1.1 0 16 0.1 17.8 1 1.9 1 5.3 7.4 5.8 10 0.5 2.6 0 13.7 0 15.8 0 2.1-5.2 12.6-7.3 14.2-2.1 1.5-25.7-1.6-27.3-1.1-1.6 0.5-1 6.3 0 6.8 1.1 0.6 14.7 2.2 15.7 1.6 1.1-0.5 1.1-4.2 0-4.7-1-0.5-8.4-1.1-8.9-1.6-0.5-0.5 10.5-12.1 10.5-15.2 0-3.2-1-17.4-1.6-19-0.5-1.5-4.2-5.2-3.6-5.7 0.5-0.6 11 0 11 0q0 0 1.6 0c1 0-0.6-3.7-1.6-4.8-1.1-1-17.8-4.2-18.9-3.7-1 0.6-2.1 1.6-2.1 1.6 0 0-8.4 7.4-8.9 8.4-0.5 1.1 0.5 15.8 1.6 17.4 1 1.6 12-1.1 13.1 0 1 1 0 3.7-1.1 4.2-1 0.5-15.7 2.1-16.2 1.6-0.6-0.6 1-16.9 0.5-17.4-0.5-0.5-10.5-1-10 0 0.6 1.1 6.3 3.2 6.8 3.7 0.6 0.5-0.5 3.7 0 4.2 0.6 0.5 9.5 0.5 10 0 0.5-0.5 0-12.6 0-13.1 0-0.6-4.2-5.8-5.8-5.8-1.5 0-34 18.9-34 18.9 0 0-5.3 3.7-27.8 7.9-22.6 4.2-20-15.3-17.9-21.6 2.1-6.3 12.1-24.1 24.7-40.4 12.6-16.3 22-25.3 44-40.5 22.1-15.3 40.9-9 40.9-9 0 0 16.3 12.1-7.3 52.1-23.6 39.9-49.8 44.1-50.9 45.2-1 1-27.8 11-29.3 8.9-1.6-2.1 27.3-11 41.9-22.6 18.7-14.7 38.3-47.3 38.3-47.3 0 0 12.6-23.6 6.3-32.1-6.3-8.4-27.8 1.7-44.6 11.1-16.8 9.4-1 13.1-1 13.1 0 0 30.4 13.2 30.4 11.1 0-2.1-86-41.6-87.6-41-1.6 0.5-5.2 7.8-7.9 9.4-2.6 1.6-7.8-3.7-7.3-4.7 0.5-1.1 16.8-8.4 14.2-13.2-2.7-4.7-6.9-2.1-6.9-2.1 0 0-6.3 9.5-8.9 9.5-2.6 0-4.7-4.2-4.2-5.8 0.6-1.6 9.5-5.8 8.9-7.3-0.5-1.6-10.4-4.8-11.5-4.2-1 0.5 0.8 9.9 2.4 9.9 1.6 0 5.5-7.3 9.1-6.8 3.7 0.5 2.7 3.7 2.1 5.3-0.5 1.5-11 10.6-6.8 12.1 4.2 1.4 11.6-9.5 13.7-9 2.1 0.6 5.7 4.2 6.2 5.8 0.6 1.6-5.7 9.5-5.7 11.6 0 2.1 5.7 8.4 7.8 7.9 2.1-0.6 6.9-7.4 6.9-7.9 0-0.6-8.4-7.4-9-6.9-0.5 0.6 2.7 5.3 2.7 6.9 0 1.6-4.2 2.6-4.2 3.7 0 1 1.5 17.3 2.6 17.8 1 0.6 10-4.2 10-5.8 0-1.5-5.3-6.8-4.8-8.9 0.6-2.1 4.2-6.8 5.8-7.4 1.6-0.5 12.1 4.3 11.5 6.4-0.5 2.1-17.8 18.4-20.9 16.8-3.2-1.6-10.5-23.7-11.6-22.6-1 1 21 87.8 23.1 89.9 2.1 2.1 58.2-25.3 55.6-30-2.6-4.7-4.7-7.4-5.8-7.4-1 0-4.7 6.9-5.7 7.4-1.1 0.5-4.8-1-4.8-2.6 0-1.6 3.2-3.7 3.2-4.8 0-1-25.1-22.5-25.2-21-0.1 1.5 19.4 22.6 21 22.6 1.6 0 2.1-3.1 3.7-3.1 1.5 0 3.6 1.5 3.6 3.1 0 1.6-3.6 6.9-4.7 6.9-1 0-3.1 0-2.6 2.1 0.5 2.1 3.1 5.7 4.7 5.2 1.6-0.5 24.1-17.3 25.7-20 1.6-2.6 23.1-31 24.6-34.1 0 0 2.7-2.7 8.4-3.2 5.8-0.5 8.4 4.7 8.4 4.7 0 0 10 35.3 22.1 38.4 12 3.2 24.6-13.6 24.6-13.6"/>
	</g>
</svg>