<svg width="258" height="183" viewBox="0 0 258 183" fill="none" xmlns="http://www.w3.org/2000/svg">
<g filter="url(#filter0_d_2601_1106)">
<path d="M106.533 129.5C115.894 123.428 121.533 121.5 121.533 120C121.533 118.5 98.0334 84 99.0334 83C100.033 82 109.533 77.5 110.533 77.5C111.533 77.5 116.033 82 117.033 82C118.033 82 124.533 78.5 124.033 77.5C123.533 76.5 116.033 77 114.533 77.5C113.033 78 103.033 85 102.533 86C102.033 87 108.533 98 110.533 98C112.533 98 121.533 91.5 122.533 91.5C123.533 91.5 128.533 95.5 128.533 96.5C128.533 97.5 119.533 92.5 119.033 91.5C118.533 90.5 118.828 84 119.533 83.5C120.239 83 130.533 88 131.533 87.5C132.533 87 139.033 83 139.533 83C140.033 83 141.033 85 141.533 85.5C142.033 86 140.533 80 141.033 78.5C141.533 77 148.033 74.5 148.533 73C149.033 71.5 137.533 56 138.033 54.5C138.533 53 157.533 40.5 159.533 41C161.533 41.5 169.533 59.5 171.033 60C172.533 60.5 191.533 48.5 192.033 47C192.533 45.5 182.033 29 182.033 28C182.033 27 203.033 13.5 204.533 14C206.033 14.5 215.533 32.5 216.533 33C217.533 33.5 236.033 22.5 237.533 22.5C239.033 22.5 249.533 40 249.533 41.5C249.533 43 230.033 53 228.033 52.5C226.033 52 218.533 35 217.533 35.5C216.533 36 195.033 46 194.033 48C193.033 50 205.033 66.5 204.533 67.5C204.033 68.5 184.033 80 182.533 79C181.033 78 173.033 64 171.033 62.5C169.033 61 150.033 74 149.533 75C149.033 76 160.533 93.5 162.533 94C164.533 94.5 253.033 45 253.033 43C253.033 41 229.033 0.5 226.533 0.5C224.033 0.5 135.533 50 134.533 54C133.533 58 148.033 75.5 148.033 76.5C148.033 77.5 144.033 80 142.033 81C140.033 82 133.033 75.5 131.533 75.5C130.033 75.5 120.533 81.5 120.033 82.5C119.533 83.5 129.533 89 130.033 89.5C130.533 90 129.033 98.5 130.533 98C132.033 97.5 141.033 92.5 142.033 92.5C143.033 92.5 159.533 102.5 159.033 103C158.533 103.5 141.533 96 141.033 96.5C140.533 97 153.533 104 154.033 104.5C154.533 105 138.533 97.5 138.533 98C138.533 98.5 153.033 108 152.533 108.5C152.033 109 129.533 96.5 131.033 96C132.533 95.5 141.533 88 142.033 88C142.533 88 170.533 103 169.533 104C168.533 105 159.033 105 152.533 111.5C146.033 118 141.033 126 140.533 134C140.033 142 140.033 148 142.033 150C144.033 152 168.533 161.5 168.533 161.5L153.033 157.5C153.033 157.5 148.533 156.5 144.533 148C140.533 139.5 149.533 121.5 152.533 118C155.533 114.5 166.533 103.5 174.033 107C181.533 110.5 189.533 118.5 192.533 121C195.533 123.5 195.033 132 195.033 134C195.033 136 195.533 137 196.533 137C197.533 137 197.533 128.087 195.033 126.5C192.533 124.913 186.033 126.09 177.033 133.5C168.033 140.91 168.533 152.5 171.033 157C173.533 161.5 184.533 168 195.033 148C205.533 128 192.726 122 188.533 123.5C184.341 125 171.533 129 168.533 141.5C165.533 154 169.533 169 183.033 163C196.533 157 202.033 157 211.033 155.5C220.033 154 229.033 161.5 229.033 161.5M106.533 129.5C106.533 129.5 114.726 137.415 116.533 134C118.341 130.585 132.246 119.129 135.533 125C138.821 130.871 139.533 141.5 134.033 150C128.533 158.5 115.033 162.5 110.533 157C106.033 151.5 117.033 135.5 117.033 135.5C117.033 135.5 131.033 122 135.033 129C139.033 136 131.533 155 120.033 157C108.533 159 115.533 133 115.533 133M106.533 129.5C106.533 129.5 116.033 132 115.533 133M106.533 129.5C106.043 129.818 105.543 130.141 105.033 130.467M115.533 133C115.533 133 112.033 130.5 109.533 129.5C107.033 128.5 105.033 130.467 105.033 130.467M105.033 130.467C104.542 130.783 104.042 131.102 103.533 131.425C83.4197 144.2 35.5334 175 30.5334 174.5C25.5334 174 3.5332 132.5 4.5332 130.5C5.5332 128.5 91.0332 79.5 93.5332 80C93.5332 80 106.533 98 106.533 100.5C106.533 103 88.5332 111.5 86.0334 111.5C83.5336 111.5 77.0332 92.5 75.0332 92.5C73.0332 92.5 52.5332 103.5 52.0332 105.5C51.5332 107.5 64.033 124 63.5332 125C63.0334 126 43.0332 138.5 41.5334 138.5C40.0336 138.5 30.5332 120 28.5332 119.5C26.5332 119 7.53339 132 7.53339 132C7.53339 132 16.0334 152 18.0332 152C20.033 152 37.5332 140 39.0332 140C40.5332 140 50.5336 159.5 52.5334 159.5C54.5332 159.5 76.0336 147 75.5334 145.5C75.0332 144 64.5332 129.5 65.0334 127C65.5336 124.5 84.5336 113.5 86.0334 114C87.5332 114.5 96.0332 130.85 97.5332 131.425C99.0332 132 119.033 121 119.033 119.5C119.033 118 92.5332 79 86.5332 79.5C80.5332 80 76.5332 84.5 66.5332 88.5C56.5332 92.5 48.0332 68 34.5332 68.5C21.0332 69 8.0332 75.5 8.0332 75.5" stroke="#CAD6DD" shape-rendering="crispEdges"/>
</g>
<defs>
<filter id="filter0_d_2601_1106" x="0" y="0" width="257.533" height="183.006" filterUnits="userSpaceOnUse" color-interpolation-filters="sRGB">
<feFlood flood-opacity="0" result="BackgroundImageFix"/>
<feColorMatrix in="SourceAlpha" type="matrix" values="0 0 0 0 0 0 0 0 0 0 0 0 0 0 0 0 0 0 127 0" result="hardAlpha"/>
<feOffset dy="4"/>
<feGaussianBlur stdDeviation="2"/>
<feComposite in2="hardAlpha" operator="out"/>
<feColorMatrix type="matrix" values="0 0 0 0 0 0 0 0 0 0 0 0 0 0 0 0 0 0 0.25 0"/>
<feBlend mode="normal" in2="BackgroundImageFix" result="effect1_dropShadow_2601_1106"/>
<feBlend mode="normal" in="SourceGraphic" in2="effect1_dropShadow_2601_1106" result="shape"/>
</filter>
</defs>
</svg>
