<svg version="1.2" xmlns="http://www.w3.org/2000/svg" viewBox="0 0 162 197" width="162" height="197">
	<title>relay dish-svg</title>
	<style>
		.s0 { fill: none;stroke: #cad6dd } 
	</style>
	<g id="Layer">
		<path id="Layer" fill-rule="evenodd" class="s0" d="m44.3 183.6c0 0 42.3 4.4 44.3 4.4 2 0 46.7-2.8 47.9-4.4 1.2-1.6 2.4-6.9 0-6.9-2.4 0-43.9 4-47.9 4.5-4.1 0.4-44.3-6.5-46.3-6.1-2 0.4-1.6 9.7 0 5.2 1.6-4.4 10.8-16.9 16.1-20.5 5.2-3.6 2.8 4.8 2.4 5.6-0.4 0.8-11.7 9.7-11.7 9.7 0 0 7.7-10.1 9.7-11.3 2-1.2 24.1 0.8 24.1 1.6 0 0.8 0 11.7 0 11.7 0 0-10.4 0-11.2 0-0.8 0-0.8-10.1 0-10.9 0.8-0.8 9.6 0 10 0.8 0.4 0.9-0.4 10.9 0.4 11.3 0.8 0.4 4 1.2 4.9 0 0.8-1.2-0.9-11.3 0-12.1 0.8-0.8 15.3-1.6 16.1-0.8 0.8 0.8 0.8 10.5 0.4 11.3-0.4 0.8-12.9 1.2-13.7 0.4-0.8-0.8-0.8-8.4 0-9.2 0.8-0.9 24.1-2.5 26.9-2.5 2.9 0 9.7 11.3 11.7 11.3 2 0 4.4-0.4 4.8-1.6 0.5-1.2-14.8-16.9-16.5-16.9-1.6 0-28.9 1.6-32.2 1.6-3.2 0-20.5-1.6-22.1-2.4-1.6-0.8-1.2-4.9 0-6.5 1.2-1.6 51.5-0.8 52.3 0 0.8 0.8 0.8 4.5 0.8 5.3 0 0.8-1.6 0.8-2 0-0.4-0.8-1.2-3.7-0.8-4.1 0.4-0.4 4-0.4 4-1.2 0-0.8 1.3-3.6 0-3.6-1.2 0-54.7 0-55.9 0-1.2 0-1.2 8.1-0.8 8.9 0.4 0.8 10 0 11.7 0 1.6 0 6.4-11.3 6.4-12.5 0-1.2-0.8-6.9 0-7.7 0.8-0.8 17.3-0.8 18.1 0 0.8 0.8 0 6.5 0 7.7 0 1.2 6.9 11.3 6.1 12.5-0.9 1.2-16.6 2-17.8 1.2-1.2-0.8-0.4-12.9-1.6-13.7-1.2-0.8-2 0-2.8-0.8-0.8-0.8-0.8-11.3 0-11.7 0.8-0.4 16.5 1.2 17.3 0 0.8-1.2 0.8-7.3 0-7.7-0.8-0.4-17.7-1.6-18.5-1.2-0.8 0.4-1.6 6.5-0.8 6.9 0.8 0.4 14.9 0 15.3-0.8 0.4-0.8 2.8-7.3 2-7.7-0.8-0.4-18.1 0.4-18.5 0-0.4-0.4 0.8-5.6 0-6-0.8-0.4-6.5 0.4-8.1 0-1.6-0.4-4-5.3-4-6.9 0-1.6-0.4-12.1 0-13.3 0.4-1.2 3.6-6 4-5.2 0.4 0.8-0.8 3.2-0.8 4 0 0.8-0.4 8.1 0 9.7 0.4 1.6 1.6 2.8 2.4 3.2 0.9 0.4 20.2-2 21.8-3.2 1.6-1.2 2.4-4.4 2.4-5.3 0-0.8 0.4-7.2 0-8.4-0.4-1.2-1.6-2.8-1.2-4.4 0.4-1.7 0.4-2.5 1.2-2.5 0.8 0 12.3 0.1 13.7 0.8 1.4 0.8 4 5.7 4.4 7.7 0.4 2 0 10.5 0 12.1 0 1.6-4 9.7-5.6 10.9-1.6 1.2-19.7-1.2-21-0.8-1.2 0.4-0.8 4.8 0 5.2 0.9 0.4 11.3 1.6 12.1 1.2 0.8-0.4 0.8-3.2 0-3.6-0.8-0.4-6.4-0.8-6.8-1.2-0.4-0.4 8-9.3 8-11.7 0-2.4-0.8-13.3-1.2-14.5-0.4-1.2-3.2-4.1-2.8-4.5 0.4-0.4 8.5 0 8.5 0q0 0 1.2 0c0.8 0-0.4-2.8-1.2-3.6-0.8-0.8-13.7-3.2-14.5-2.8-0.8 0.4-1.6 1.2-1.6 1.2 0 0-6.5 5.6-6.9 6.5-0.4 0.8 0.4 12 1.2 13.3 0.8 1.2 9.3-0.9 10.1 0 0.8 0.8 0 2.8-0.8 3.2-0.8 0.4-12.1 1.6-12.5 1.2-0.4-0.4 0.8-12.9 0.4-13.3-0.4-0.4-8-0.8-7.6 0 0.4 0.8 4.8 2.4 5.2 2.8 0.4 0.4-0.4 2.8 0 3.2 0.4 0.4 7.2 0.4 7.6 0 0.4-0.4 0-9.6 0-10 0-0.4-3.2-4.5-4.4-4.5-1.2 0-26.2 14.5-26.2 14.5 0 0-4 2.9-21.3 6.1-17.3 3.2-15.3-11.7-13.7-16.5 1.6-4.9 9.3-18.6 18.9-31.1 9.7-12.5 16.9-19.3 33.9-31 16.9-11.7 31.4-6.8 31.4-6.8 0 0 12.4 9.2-5.7 39.8-18.1 30.7-38.2 33.9-39 34.7-0.8 0.8-21.4 8.5-22.6 6.8-1.2-1.6 21-8.4 32.2-17.3 14.3-11.3 29.4-36.2 29.4-36.2 0 0 9.7-18.2 4.9-24.6-4.9-6.5-21.4 1.2-34.3 8.4-12.8 7.2-0.8 10.1-0.8 10.1 0 0 23.4 10.1 23.4 8.5 0-1.6-66-31.9-67.2-31.5-1.3 0.4-4.1 6.1-6.1 7.3-2 1.2-6-2.8-5.6-3.6 0.4-0.8 12.9-6.5 10.8-10.1-2-3.6-5.2-1.6-5.2-1.6 0 0-4.8 7.2-6.8 7.2-2 0-3.7-3.2-3.3-4.4 0.5-1.2 7.3-4.4 6.9-5.6-0.4-1.2-8.1-3.7-8.9-3.3-0.8 0.4 0.7 7.7 1.9 7.7 1.2 0 4.2-5.6 7-5.2 2.8 0.4 2 2.8 1.6 4-0.4 1.2-8.5 8.2-5.2 9.3 3.2 1.1 8.8-7.3 10.4-6.9 1.6 0.4 4.5 3.2 4.9 4.4 0.4 1.3-4.5 7.3-4.5 8.9 0 1.6 4.5 6.5 6.1 6 1.6-0.4 5.2-5.6 5.2-6 0-0.4-6.4-5.6-6.8-5.2-0.4 0.4 2 4 2 5.2 0 1.2-3.2 2-3.2 2.8 0 0.8 1.2 13.3 2 13.7 0.8 0.4 7.6-3.2 7.6-4.4 0-1.2-4-5.2-3.6-6.9 0.4-1.6 3.2-5.2 4.4-5.6 1.2-0.4 9.3 3.2 8.9 4.8-0.4 1.6-13.7 14.1-16.1 12.9-2.4-1.2-8.1-18.1-8.9-17.3-0.8 0.8 16.1 67.3 17.7 68.9 1.6 1.6 44.7-19.3 42.7-23-2-3.6-3.6-5.6-4.4-5.6-0.8 0-3.6 5.2-4.5 5.6-0.8 0.4-3.6-0.8-3.6-2 0-1.2 2.4-2.8 2.4-3.6 0-0.8-19.2-17.3-19.3-16.1-0.1 1.1 14.9 17.3 16.1 17.3 1.2 0 1.6-2.4 2.8-2.4 1.2 0 2.9 1.2 2.9 2.4 0 1.2-2.9 5.2-3.7 5.2-0.8 0-2.4 0-2 1.7 0.4 1.6 2.4 4.4 3.6 4 1.3-0.4 18.6-13.3 19.8-15.3 1.2-2 17.7-23.8 18.9-26.2 0 0 2-2 6.4-2.4 4.5-0.4 6.5 3.6 6.5 3.6 0 0 7.6 27 16.9 29.4 9.2 2.4 18.9-10.5 18.9-10.5"/>
	</g>
</svg>