<svg width="167" height="32" viewBox="0 0 167 32" fill="none" xmlns="http://www.w3.org/2000/svg">
<path d="M38.374 10.639V8.043H50.606V10.639H45.898V24.125H43.082V10.639H38.374ZM56.0146 8.043V24.125H53.1986V8.043H56.0146ZM62.7474 24.125H60.0194V8.043H62.7474L67.9394 20.847L73.1314 8.043H75.9034V24.125H73.1754V19.175C73.1754 15.941 73.1754 14.995 73.3294 13.851L69.2374 24.125H66.6414L62.5714 13.873C62.7254 14.841 62.7474 16.359 62.7474 18.361V24.125ZM93.0705 24.389C88.3845 24.389 85.3485 21.133 85.3485 16.095C85.3485 11.101 88.4945 7.779 93.2025 7.779C97.0085 7.779 99.8465 10.001 100.396 13.455H97.4265C96.8765 11.585 95.2705 10.485 93.1365 10.485C90.1665 10.485 88.2965 12.641 88.2965 16.073C88.2965 19.483 90.1885 21.683 93.1365 21.683C95.3145 21.683 96.9865 20.539 97.5145 18.757H100.44C99.8245 22.145 96.8765 24.389 93.0705 24.389ZM106.222 24.125H103.406V8.043H106.222V14.687H113.35V8.043H116.166V24.125H113.35V17.305H106.222V24.125ZM130.162 24.125H120.174V8.043H130.162V10.639H122.99V14.775H129.414V17.261H122.99V21.529H130.162V24.125ZM136.427 24.125H133.655V8.043H136.449L143.995 19.439V8.043H146.767V24.125H143.995L136.427 12.729V24.125ZM157.807 10.419C154.617 10.419 152.791 12.729 152.791 16.205C152.791 19.791 154.859 21.749 157.829 21.749C160.623 21.749 162.317 20.209 162.317 17.635V17.569H157.455V15.083H164.935V24.125H162.559L162.383 22.277C161.503 23.509 159.677 24.367 157.499 24.367C152.989 24.367 149.843 21.089 149.843 16.139C149.843 11.255 153.033 7.779 157.873 7.779C161.547 7.779 164.385 9.913 164.847 13.191H161.877C161.371 11.299 159.743 10.419 157.807 10.419Z" fill="#CAD6DD"/>
<path d="M25.9999 7.64441H16.5405V24.5362H25.9999" stroke="#CAD6DD" stroke-width="2"/>
<path d="M26 1H1V7.85307H8.43243V27.0417" stroke="#2886BC" stroke-width="2"/>
</svg>
