<svg width="133" height="26" viewBox="0 0 133 26" fill="none" xmlns="http://www.w3.org/2000/svg">
<path d="M37.272 10.192V8.304H46.168V10.192H42.744V20H40.696V10.192H37.272ZM50.4215 8.304V20H48.3735V8.304H50.4215ZM55.6381 20H53.6541V8.304H55.6381L59.4141 17.616L63.1901 8.304H65.2061V20H63.2221V16.4C63.2221 14.048 63.2221 13.36 63.3341 12.528L60.3581 20H58.4701L55.5101 12.544C55.6221 13.248 55.6381 14.352 55.6381 15.808V20ZM78.3313 20.192C74.9233 20.192 72.7153 17.824 72.7153 14.16C72.7153 10.528 75.0033 8.112 78.4273 8.112C81.1953 8.112 83.2593 9.728 83.6593 12.24H81.4993C81.0993 10.88 79.9313 10.08 78.3793 10.08C76.2193 10.08 74.8593 11.648 74.8593 14.144C74.8593 16.624 76.2353 18.224 78.3793 18.224C79.9633 18.224 81.1793 17.392 81.5633 16.096H83.6913C83.2433 18.56 81.0993 20.192 78.3313 20.192ZM88.2159 20H86.1679V8.304H88.2159V13.136H93.3999V8.304H95.4479V20H93.3999V15.04H88.2159V20ZM105.947 20H98.6829V8.304H105.947V10.192H100.731V13.2H105.403V15.008H100.731V18.112H105.947V20ZM110.823 20H108.807V8.304H110.839L116.327 16.592V8.304H118.343V20H116.327L110.823 11.712V20ZM126.692 10.032C124.372 10.032 123.044 11.712 123.044 14.24C123.044 16.848 124.548 18.272 126.708 18.272C128.74 18.272 129.972 17.152 129.972 15.28V15.232H126.436V13.424H131.876V20H130.148L130.02 18.656C129.38 19.552 128.052 20.176 126.468 20.176C123.188 20.176 120.9 17.792 120.9 14.192C120.9 10.64 123.22 8.112 126.74 8.112C129.412 8.112 131.476 9.664 131.812 12.048H129.652C129.284 10.672 128.1 10.032 126.692 10.032Z" fill="#CAD6DD"/>
<path d="M25 7.37891H15.9189V23.595H25" stroke="#CAD6DD" stroke-width="2"/>
<path d="M25 1H1V7.57895H8.13513V26" stroke="#4B7188" stroke-width="2"/>
</svg>
